<?xml version="1.0" encoding="UTF-8" standalone="no"?>
<svg
   xmlns:dc="http://purl.org/dc/elements/1.1/"
   xmlns:cc="http://creativecommons.org/ns#"
   xmlns:rdf="http://www.w3.org/1999/02/22-rdf-syntax-ns#"
   xmlns:svg="http://www.w3.org/2000/svg"
   xmlns="http://www.w3.org/2000/svg"
   xmlns:xlink="http://www.w3.org/1999/xlink"
   xmlns:sodipodi="http://sodipodi.sourceforge.net/DTD/sodipodi-0.dtd"
   xmlns:inkscape="http://www.inkscape.org/namespaces/inkscape"
   version="1.1"
   id="svg2"
   width="712"
   height="275"
   viewBox="0 0 712 275"
   sodipodi:docname="cucumber-logo-vector.svg"
   inkscape:version="1.0.1 (1.0.1+r74)">
  <metadata
     id="metadata8">
    <rdf:RDF>
      <cc:Work
         rdf:about="">
        <dc:format>image/svg+xml</dc:format>
        <dc:type
           rdf:resource="http://purl.org/dc/dcmitype/StillImage" />
        <dc:title></dc:title>
      </cc:Work>
    </rdf:RDF>
  </metadata>
  <defs
     id="defs6">
    <filter
       inkscape:collect="always"
       style="color-interpolation-filters:sRGB"
       id="filter1217"
       x="-0.00024335882"
       width="1.0004867"
       y="-0.00021185412"
       height="1.0004237">
      <feGaussianBlur
         inkscape:collect="always"
         stdDeviation="0.012772766"
         id="feGaussianBlur1219" />
    </filter>
  </defs>
  <sodipodi:namedview
     pagecolor="#ffffff"
     bordercolor="#666666"
     borderopacity="1"
     objecttolerance="10"
     gridtolerance="10"
     guidetolerance="10"
     inkscape:pageopacity="0"
     inkscape:pageshadow="2"
     inkscape:window-width="1366"
     inkscape:window-height="719"
     id="namedview4"
     showgrid="false"
     inkscape:zoom="0.67966374"
     inkscape:cx="170.22485"
     inkscape:cy="390.09457"
     inkscape:window-x="0"
     inkscape:window-y="25"
     inkscape:window-maximized="1"
     inkscape:current-layer="g10" />
  <g
     inkscape:groupmode="layer"
     inkscape:label="Image"
     id="g10">
    <g
       id="g894"
       transform="matrix(2.4638464,0,0,2.4638464,214.89494,0.3200925)">
      <image
         sodipodi:absref="/home/joseph/workspace/terraform-ec2module-bdd-demo/blog_article/terraform.png"
         xlink:href="terraform.png"
         width="87.686287"
         height="87.686287"
         preserveAspectRatio="none"
         style="image-rendering:optimizeQuality"
         id="image881"
         x="-0.7127955"
         y="26.233831" />
      <path
         d="m 179.11263,17.595939 c -35.17758,0 -63.64657,28.547712 -63.64657,63.822717 0,31.057664 22.20126,56.863184 51.50033,62.604414 v 18.26979 c 38.09101,-5.75846 71.81853,-36.07902 74.33535,-75.880394 1.51453,-23.95738 -10.397,-48.41469 -30.48736,-60.29079 -1.15041,-0.67952 -2.31904,-1.354611 -3.52258,-1.948514 -1.22619,-0.605221 -2.48534,-1.194697 -3.76516,-1.705443 -0.40644,-0.17025 -0.80451,-0.324753 -1.21488,-0.487129 -1.11744,-0.413321 -2.24521,-0.879292 -3.40055,-1.217822 -6.22836,-2.058242 -12.88578,-3.166829 -19.79858,-3.166829 z"
         fill="#00a818"
         id="path2"
         style="stroke-width:0.49205;filter:url(#filter1217)"
         transform="matrix(0.44471503,0,0,0.44471503,-3.3535684,-6.0606749)" />
      <path
         d="m 82.164056,12.251971 c -0.970035,-0.09978 -1.991714,0.238734 -2.706171,1.085356 -0.519699,0.694977 -0.844429,1.367854 -1.190822,2.062612 -1.039402,2.431548 -0.692795,5.03684 0.866095,6.94759 2.424765,-0.521233 4.481465,-2.073555 5.520866,-4.505101 0.346398,-0.694759 0.541147,-1.584926 0.541147,-2.279685 0.108319,-1.845323 -1.414025,-3.144467 -3.031115,-3.310772 z m -12.611349,0.162803 c -1.581424,0.150987 -3.085171,1.4114 -3.085171,3.147969 0,0.694759 0.19475,1.584926 0.541365,2.279685 1.039184,2.431546 3.258258,3.983868 5.683241,4.504883 1.38558,-1.910314 1.742696,-4.515824 0.703512,-6.947372 -0.346397,-0.694758 -0.671128,-1.378576 -1.190831,-1.89959 -0.714448,-0.84684 -1.703085,-1.176167 -2.652116,-1.085355 z m -8.497504,8.35877 c -2.731333,0.140486 -3.951262,3.582109 -1.677923,5.373385 0.692786,0.520793 1.363915,0.90089 2.056923,1.248377 2.424542,1.04203 5.228305,0.683821 7.306895,-0.705696 -0.519703,-2.257804 -2.284061,-4.331142 -4.709043,-5.373389 -0.866096,-0.347269 -1.569609,-0.542677 -2.435487,-0.542677 -0.194967,-0.02188 -0.359303,-0.0094 -0.541365,0 z m 26.68421,10.5297 c -1.586455,-0.03064 -3.193486,0.43414 -4.492405,1.302424 0.519481,2.258023 2.284057,4.331362 4.709039,5.373391 0.865878,0.34727 1.56939,0.542677 2.435486,0.542677 3.117768,0.173746 4.644048,-3.690652 2.219288,-5.427438 -0.693008,-0.521232 -1.364132,-0.846835 -2.056923,-1.194108 -0.909202,-0.390816 -1.862608,-0.578784 -2.814485,-0.597168 z m -23.653312,0.162588 c -0.951873,0.01837 -1.905062,0.206348 -2.814486,0.597159 -0.866096,0.347273 -1.53722,0.727367 -2.056923,1.248382 -2.251672,1.910313 -0.735896,5.547128 2.381658,5.373164 0.866096,0 1.742914,-0.195185 2.435705,-0.542676 2.424982,-1.04203 4.146016,-3.115365 4.492409,-5.373387 a 7.7353465,7.7353465 0 0 0 -4.438363,-1.302642 z m 8.768624,5.319119 c -2.424982,0.521014 -4.481687,2.073332 -5.52087,4.504878 -0.346398,0.69476 -0.541365,1.530656 -0.541365,2.225416 -0.173088,2.952561 3.842942,4.537486 5.575139,2.279463 0.51948,-0.694756 0.844215,-1.367637 1.190608,-2.062393 1.039402,-2.2578 0.682069,-4.863092 -0.703512,-6.947364 z m 6.441017,0.162801 c -1.385799,1.910531 -1.742914,4.515823 -0.703731,6.947587 0.346393,0.694538 0.671124,1.378576 1.190827,1.899369 1.905279,2.084277 5.910374,0.542677 5.737504,-2.062393 0,-0.69476 -0.194967,-1.58492 -0.541365,-2.27968 -1.039401,-2.431546 -3.258253,-3.983868 -5.683235,-4.504883 z"
         fill="#ffffff"
         id="path4"
         style="stroke-width:0.218822" />
    </g>
  </g>
</svg>
